<svg version="1.1" id="Layer_1" xmlns="http://www.w3.org/2000/svg" xmlns:xlink="http://www.w3.org/1999/xlink" x="0px" y="0px"
	 width="100%" viewBox="0 0 500 500" enable-background="new 0 0 500 500" xml:space="preserve">
<path fill="#FFFFFF" opacity="0.000000" stroke="none" 
	d="
M253.000000,501.000000 
	C168.666687,501.000000 84.833374,501.000000 1.000045,501.000000 
	C1.000030,334.333405 1.000030,167.666794 1.000015,1.000134 
	C167.666565,1.000090 334.333130,1.000090 500.999756,1.000045 
	C500.999847,167.666519 500.999847,334.333038 500.999939,500.999786 
	C418.500000,501.000000 336.000000,501.000000 253.000000,501.000000 
M239.401123,180.359253 
	C245.004959,180.359253 250.608795,180.359253 256.390198,180.359253 
	C256.390198,173.944077 256.390198,168.216736 256.390198,162.411057 
	C250.266571,162.411057 244.423767,162.411057 238.045288,162.411057 
	C238.045288,168.585480 238.045288,174.371368 237.112137,180.021942 
	C231.693726,180.021942 226.275330,180.021942 220.827469,180.021942 
	C220.827469,192.333115 220.827469,204.040100 220.827469,215.619400 
	C232.892807,215.619400 244.595367,215.619400 256.342896,215.619400 
	C256.342896,209.640030 256.342896,204.047256 256.342896,197.880569 
	C250.371368,197.880569 244.645950,197.880569 238.510529,197.880569 
	C238.510529,191.827103 238.510529,186.349609 239.401123,180.359253 
M144.554276,280.097534 
	C144.554276,274.496643 144.554276,268.895752 144.554276,263.389404 
	C132.178741,263.389404 120.440491,263.389404 108.817039,263.389404 
	C108.817039,281.319519 108.817039,298.910400 108.817039,316.724915 
	C114.805946,316.724915 120.530357,316.724915 126.915855,316.724915 
	C126.915855,304.769958 126.915855,293.080170 126.915855,280.933533 
	C133.208023,280.933533 138.843323,280.933533 144.213638,281.848969 
	C144.213638,293.447876 144.213638,305.046753 144.213638,316.742920 
	C150.580551,316.742920 156.319778,316.742920 162.169800,316.742920 
	C162.169800,304.734894 162.169800,293.002045 162.169800,281.021118 
	C156.032700,281.021118 150.217270,281.021118 144.554276,280.097534 
M321.200867,281.863495 
	C321.200867,293.446442 321.200867,305.029358 321.200867,316.753906 
	C327.516815,316.753906 333.249146,316.753906 339.115723,316.753906 
	C339.115723,304.764343 339.115723,293.029999 339.115723,281.050232 
	C333.036011,281.050232 327.230133,281.050232 321.514282,280.115295 
	C321.514282,274.512085 321.514282,268.908875 321.514282,263.363770 
	C309.196655,263.363770 297.480713,263.363770 285.725586,263.363770 
	C285.725586,281.376190 285.725586,299.060883 285.725586,316.688293 
	C291.819458,316.688293 297.551910,316.688293 303.745056,316.688293 
	C303.745056,304.804779 303.745056,293.240173 303.745056,280.966248 
	C309.972778,280.966248 315.741974,280.966248 321.200867,281.863495 
M314.611694,164.944168 
	C314.611694,169.852325 314.611694,174.760483 314.611694,180.121628 
	C308.302612,180.121628 302.718628,180.121628 297.176117,180.121628 
	C297.176117,192.307510 297.176117,204.012573 297.176117,215.613007 
	C303.253448,215.613007 308.967163,215.613007 315.065369,215.613007 
	C315.065369,209.635178 315.065369,204.045700 315.065369,198.403870 
	C321.027832,198.403870 326.581787,198.403870 332.553528,198.403870 
	C332.553528,204.354980 332.553528,209.967148 332.553528,215.761963 
	C338.720428,215.761963 344.459106,215.761963 350.377655,215.761963 
	C350.377655,203.797882 350.377655,192.079895 350.377655,179.946716 
	C344.497162,179.946716 338.899689,179.946716 332.754578,179.946716 
	C332.754578,173.827179 332.754578,168.108719 332.754578,162.057892 
	C327.061615,162.057892 321.927155,161.978165 316.800873,162.146332 
	C316.056274,162.170746 315.350586,163.381485 314.611694,164.944168 
M238.722305,288.579895 
	C238.722305,286.143616 238.722305,283.707336 238.722305,281.335571 
	C232.296692,281.335571 226.563721,281.335571 220.877899,281.335571 
	C220.877899,293.378448 220.877899,305.079468 220.877899,316.733398 
	C238.872940,316.733398 256.457062,316.733398 274.134766,316.733398 
	C274.134766,304.730225 274.134766,292.999390 274.134766,281.345215 
	C268.058380,281.345215 262.320160,281.345215 256.194244,281.345215 
	C256.194244,287.281281 256.194244,292.881744 256.194244,298.715149 
	C250.237122,298.715149 244.676697,298.715149 238.722168,298.715149 
	C238.722168,295.473724 238.722168,292.509125 238.722305,288.579895 
M386.465302,314.090668 
	C386.465302,309.185944 386.465302,304.281219 386.465302,298.919281 
	C392.854156,298.919281 398.427826,298.919281 403.989014,298.919281 
	C403.989014,292.701447 403.989014,286.971100 403.989014,281.397095 
	C391.926514,281.397095 380.207733,281.397095 368.095337,281.397095 
	C368.095337,287.383026 368.095337,292.977234 368.095337,298.974670 
	C362.107239,298.974670 356.509216,298.974670 350.628540,298.974670 
	C350.628540,305.125763 350.628540,310.854889 350.628540,316.995056 
	C362.024780,316.995056 373.148285,317.032684 384.269958,316.909393 
	C385.002777,316.901276 385.721985,315.665100 386.465302,314.090668 
M150.575653,198.056030 
	C154.372025,198.056030 158.168396,198.056030 162.210556,198.056030 
	C162.210556,191.882202 162.210556,186.130295 162.210556,180.289642 
	C150.226013,180.289642 138.503387,180.289642 126.192390,180.289642 
	C126.192390,186.278961 126.192390,191.992752 126.192390,198.124634 
	C120.032181,198.124634 114.452431,198.124634 108.817245,198.124634 
	C108.817245,204.301147 108.817245,210.024200 108.817245,215.621704 
	C120.883224,215.621704 132.591812,215.621704 144.755157,215.621704 
	C144.755157,209.663269 144.755157,204.079453 144.755157,198.270569 
	C146.665543,198.186005 148.133133,198.121048 150.575653,198.056030 
M209.537048,187.611664 
	C209.537048,185.165894 209.537048,182.720123 209.537048,180.366486 
	C197.167618,180.366486 185.443024,180.366486 173.647980,180.366486 
	C173.647980,192.336182 173.647980,203.933456 173.647980,215.737747 
	C185.631744,215.737747 197.356018,215.737747 209.536621,215.737747 
	C209.536621,206.511673 209.536621,197.546585 209.537048,187.611664 
M173.389343,297.502045 
	C173.389343,303.925873 173.389343,310.349701 173.389343,316.810120 
	C185.756714,316.810120 197.374405,316.810120 209.263275,316.810120 
	C209.263275,304.871460 209.263275,293.128815 209.263275,281.302704 
	C197.261414,281.302704 185.535934,281.302704 173.389679,281.302704 
	C173.389679,286.567627 173.389679,291.536011 173.389343,297.502045 
M361.798584,195.499863 
	C361.798584,202.247406 361.798584,208.994965 361.798584,215.587128 
	C368.244537,215.587128 373.957153,215.587128 379.550140,215.587128 
	C379.550140,197.582474 379.550140,179.999344 379.550140,162.323517 
	C373.506805,162.323517 367.769196,162.323517 361.798492,162.323517 
	C361.798492,173.231079 361.798492,183.865479 361.798584,195.499863 
M273.628845,197.992386 
	C271.713837,197.992386 269.798828,197.992386 267.887268,197.992386 
	C267.887268,204.350403 267.887268,210.055389 267.887268,215.665985 
	C273.974518,215.665985 279.693756,215.665985 285.393616,215.665985 
	C285.393616,209.617325 285.393616,203.918350 285.393616,197.992386 
	C281.540466,197.992386 278.064423,197.992386 273.628845,197.992386 
M277.470490,162.043655 
	C274.337067,162.043655 271.203644,162.043655 267.795410,162.043655 
	C267.795410,168.135056 267.795410,173.873795 267.795410,179.706375 
	C273.844940,179.706375 279.676575,179.706375 285.522095,179.706375 
	C285.522095,173.699326 285.522095,168.117523 285.522095,162.043686 
	C283.000977,162.043686 280.717438,162.043686 277.470490,162.043655 
z"/>
<path fill="#CD0997" opacity="1.000000" stroke="none" 
	d="
M314.619263,164.493713 
	C315.350586,163.381485 316.056274,162.170746 316.800873,162.146332 
	C321.927155,161.978165 327.061615,162.057892 332.754578,162.057892 
	C332.754578,168.108719 332.754578,173.827179 332.754578,179.946716 
	C338.899689,179.946716 344.497162,179.946716 350.377655,179.946716 
	C350.377655,192.079895 350.377655,203.797882 350.377655,215.761963 
	C344.459106,215.761963 338.720428,215.761963 332.553528,215.761963 
	C332.553528,209.967148 332.553528,204.354980 332.553528,198.403870 
	C326.581787,198.403870 321.027832,198.403870 315.065369,198.403870 
	C315.065369,204.045700 315.065369,209.635178 315.065369,215.613007 
	C308.967163,215.613007 303.253448,215.613007 297.176117,215.613007 
	C297.176117,204.012573 297.176117,192.307510 297.176117,180.121628 
	C302.718628,180.121628 308.302612,180.121628 314.611694,180.121628 
	C314.611694,174.760483 314.611694,169.852325 314.619263,164.493713 
z"/>
<path fill="#CC0796" opacity="1.000000" stroke="none" 
	d="
M238.722229,289.062225 
	C238.722168,292.509125 238.722168,295.473724 238.722168,298.715149 
	C244.676697,298.715149 250.237122,298.715149 256.194244,298.715149 
	C256.194244,292.881744 256.194244,287.281281 256.194244,281.345215 
	C262.320160,281.345215 268.058380,281.345215 274.134766,281.345215 
	C274.134766,292.999390 274.134766,304.730225 274.134766,316.733398 
	C256.457062,316.733398 238.872940,316.733398 220.877899,316.733398 
	C220.877899,305.079468 220.877899,293.378448 220.877899,281.335571 
	C226.563721,281.335571 232.296692,281.335571 238.722305,281.335571 
	C238.722305,283.707336 238.722305,286.143616 238.722229,289.062225 
z"/>
<path fill="#CE0D99" opacity="1.000000" stroke="none" 
	d="
M321.511139,280.966248 
	C315.741974,280.966248 309.972778,280.966248 303.745056,280.966248 
	C303.745056,293.240173 303.745056,304.804779 303.745056,316.688293 
	C297.551910,316.688293 291.819458,316.688293 285.725586,316.688293 
	C285.725586,299.060883 285.725586,281.376190 285.725586,263.363770 
	C297.480713,263.363770 309.196655,263.363770 321.514282,263.363770 
	C321.514282,268.908875 321.514282,274.512085 321.490448,280.560608 
	C321.466614,281.005951 321.511139,280.966248 321.511139,280.966248 
z"/>
<path fill="#CD0896" opacity="1.000000" stroke="none" 
	d="
M386.456421,314.545410 
	C385.721985,315.665100 385.002777,316.901276 384.269958,316.909393 
	C373.148285,317.032684 362.024780,316.995056 350.628540,316.995056 
	C350.628540,310.854889 350.628540,305.125763 350.628540,298.974670 
	C356.509216,298.974670 362.107239,298.974670 368.095337,298.974670 
	C368.095337,292.977234 368.095337,287.383026 368.095337,281.397095 
	C380.207733,281.397095 391.926514,281.397095 403.989014,281.397095 
	C403.989014,286.971100 403.989014,292.701447 403.989014,298.919281 
	C398.427826,298.919281 392.854156,298.919281 386.465302,298.919281 
	C386.465302,304.281219 386.465302,309.185944 386.456421,314.545410 
z"/>
<path fill="#CD0896" opacity="1.000000" stroke="none" 
	d="
M150.088196,198.056061 
	C148.133133,198.121048 146.665543,198.186005 144.755157,198.270569 
	C144.755157,204.079453 144.755157,209.663269 144.755157,215.621704 
	C132.591812,215.621704 120.883224,215.621704 108.817245,215.621704 
	C108.817245,210.024200 108.817245,204.301147 108.817245,198.124634 
	C114.452431,198.124634 120.032181,198.124634 126.192390,198.124634 
	C126.192390,191.992752 126.192390,186.278961 126.192390,180.289642 
	C138.503387,180.289642 150.226013,180.289642 162.210556,180.289642 
	C162.210556,186.130295 162.210556,191.882202 162.210556,198.056030 
	C158.168396,198.056030 154.372025,198.056030 150.088196,198.056061 
z"/>
<path fill="#CD0896" opacity="1.000000" stroke="none" 
	d="
M209.536835,188.096588 
	C209.536621,197.546585 209.536621,206.511673 209.536621,215.737747 
	C197.356018,215.737747 185.631744,215.737747 173.647980,215.737747 
	C173.647980,203.933456 173.647980,192.336182 173.647980,180.366486 
	C185.443024,180.366486 197.167618,180.366486 209.537048,180.366486 
	C209.537048,182.720123 209.537048,185.165894 209.536835,188.096588 
z"/>
<path fill="#CD0896" opacity="1.000000" stroke="none" 
	d="
M173.389511,297.003235 
	C173.389679,291.536011 173.389679,286.567627 173.389679,281.302704 
	C185.535934,281.302704 197.261414,281.302704 209.263275,281.302704 
	C209.263275,293.128815 209.263275,304.871460 209.263275,316.810120 
	C197.374405,316.810120 185.756714,316.810120 173.389343,316.810120 
	C173.389343,310.349701 173.389343,303.925873 173.389511,297.003235 
z"/>
<path fill="#CD0896" opacity="1.000000" stroke="none" 
	d="
M144.478638,280.933533 
	C138.843323,280.933533 133.208023,280.933533 126.915855,280.933533 
	C126.915855,293.080170 126.915855,304.769958 126.915855,316.724915 
	C120.530357,316.724915 114.805946,316.724915 108.817039,316.724915 
	C108.817039,298.910400 108.817039,281.319519 108.817039,263.389404 
	C120.440491,263.389404 132.178741,263.389404 144.554276,263.389404 
	C144.554276,268.895752 144.554276,274.496643 144.502289,280.541107 
	C144.450302,280.984680 144.478638,280.933533 144.478638,280.933533 
z"/>
<path fill="#CC0796" opacity="1.000000" stroke="none" 
	d="
M238.510529,180.872101 
	C238.510529,186.349609 238.510529,191.827103 238.510529,197.880569 
	C244.645950,197.880569 250.371368,197.880569 256.342896,197.880569 
	C256.342896,204.047256 256.342896,209.640030 256.342896,215.619400 
	C244.595367,215.619400 232.892807,215.619400 220.827469,215.619400 
	C220.827469,204.040100 220.827469,192.333115 220.827469,180.021942 
	C226.275330,180.021942 231.693726,180.021942 237.606537,180.237442 
	C238.173676,180.654984 238.310211,180.794693 238.510529,180.872101 
z"/>
<path fill="#CD0997" opacity="1.000000" stroke="none" 
	d="
M361.798523,194.999878 
	C361.798492,183.865479 361.798492,173.231079 361.798492,162.323517 
	C367.769196,162.323517 373.506805,162.323517 379.550140,162.323517 
	C379.550140,179.999344 379.550140,197.582474 379.550140,215.587128 
	C373.957153,215.587128 368.244537,215.587128 361.798584,215.587128 
	C361.798584,208.994965 361.798584,202.247406 361.798523,194.999878 
z"/>
<path fill="#CD0997" opacity="1.000000" stroke="none" 
	d="
M321.356018,281.414856 
	C321.511139,280.966248 321.466614,281.005951 321.445435,281.028076 
	C327.230133,281.050232 333.036011,281.050232 339.115723,281.050232 
	C339.115723,293.029999 339.115723,304.764343 339.115723,316.753906 
	C333.249146,316.753906 327.516815,316.753906 321.200867,316.753906 
	C321.200867,305.029358 321.200867,293.446442 321.356018,281.414856 
z"/>
<path fill="#CE0D99" opacity="1.000000" stroke="none" 
	d="
M144.346130,281.391235 
	C144.478638,280.933533 144.450302,280.984680 144.426071,281.002899 
	C150.217270,281.021118 156.032700,281.021118 162.169800,281.021118 
	C162.169800,293.002045 162.169800,304.734894 162.169800,316.742920 
	C156.319778,316.742920 150.580551,316.742920 144.213638,316.742920 
	C144.213638,305.046753 144.213638,293.447876 144.346130,281.391235 
z"/>
<path fill="#CF169C" opacity="1.000000" stroke="none" 
	d="
M238.955826,180.615677 
	C238.310211,180.794693 238.173676,180.654984 238.073120,180.305115 
	C238.045288,174.371368 238.045288,168.585480 238.045288,162.411057 
	C244.423767,162.411057 250.266571,162.411057 256.390198,162.411057 
	C256.390198,168.216736 256.390198,173.944077 256.390198,180.359253 
	C250.608795,180.359253 245.004959,180.359253 238.955826,180.615677 
z"/>
<path fill="#CD0997" opacity="1.000000" stroke="none" 
	d="
M274.108612,197.992386 
	C278.064423,197.992386 281.540466,197.992386 285.393616,197.992386 
	C285.393616,203.918350 285.393616,209.617325 285.393616,215.665985 
	C279.693756,215.665985 273.974518,215.665985 267.887268,215.665985 
	C267.887268,210.055389 267.887268,204.350403 267.887268,197.992386 
	C269.798828,197.992386 271.713837,197.992386 274.108612,197.992386 
z"/>
<path fill="#CD0B98" opacity="1.000000" stroke="none" 
	d="
M277.952209,162.043671 
	C280.717438,162.043686 283.000977,162.043686 285.522095,162.043686 
	C285.522095,168.117523 285.522095,173.699326 285.522095,179.706375 
	C279.676575,179.706375 273.844940,179.706375 267.795410,179.706375 
	C267.795410,173.873795 267.795410,168.135056 267.795410,162.043655 
	C271.203644,162.043655 274.337067,162.043655 277.952209,162.043671 
z"/>
</svg>