<?xml version="1.0" encoding="iso-8859-1"?>
<!-- Generator: Adobe Illustrator 16.0.0, SVG Export Plug-In . SVG Version: 6.00 Build 0)  -->
<!DOCTYPE svg PUBLIC "-//W3C//DTD SVG 1.1//EN" "http://www.w3.org/Graphics/SVG/1.1/DTD/svg11.dtd">
<svg version="1.1" id="Capa_1" xmlns="http://www.w3.org/2000/svg" xmlns:xlink="http://www.w3.org/1999/xlink" x="0px" y="0px"
	 width="45.331px" height="45.331px" viewBox="0 0 45.331 45.331" style="enable-background:new 0 0 45.331 45.331;"
	 xml:space="preserve">
<g>
	<g fill="#fff">
		<path d="M19.974,23.219c0.606-0.44,0.899-1.195,0.748-1.93l-1.271-6.174l4.657-4.248c0.554-0.505,0.761-1.287,0.529-2
			c-0.232-0.713-0.859-1.224-1.604-1.307l-6.265-0.698l-2.6-5.741C13.858,0.438,13.179,0,12.43,0S11,0.438,10.69,1.121l-2.6,5.741
			L1.827,7.56C1.082,7.643,0.455,8.154,0.224,8.867c-0.232,0.713-0.025,1.495,0.529,2l4.658,4.248l-1.272,6.174
			c-0.151,0.734,0.141,1.488,0.748,1.93c0.607,0.44,1.414,0.484,2.065,0.114l5.479-3.117l5.479,3.117
			C18.56,23.704,19.368,23.659,19.974,23.219z"/>
		<path d="M45.142,16.926c-0.148-0.455-0.549-0.782-1.025-0.835l-4.004-0.446l-1.663-3.671c-0.197-0.437-0.632-0.717-1.111-0.717
			c-0.479,0-0.912,0.28-1.11,0.717l-1.662,3.671l-4.004,0.446c-0.477,0.053-0.877,0.38-1.025,0.835
			c-0.147,0.455-0.016,0.955,0.338,1.277l2.978,2.716l-0.813,3.947c-0.097,0.47,0.09,0.95,0.479,1.233
			c0.387,0.28,0.903,0.311,1.319,0.072l3.501-1.992l3.503,1.992c0.418,0.237,0.934,0.208,1.32-0.072
			c0.387-0.281,0.574-0.765,0.479-1.233l-0.813-3.947l2.978-2.716C45.157,17.881,45.289,17.381,45.142,16.926z"/>
		<path d="M30.239,33.471l-4.637-0.518l-1.925-4.251c-0.229-0.505-0.732-0.829-1.287-0.829s-1.058,0.324-1.287,0.829l-1.924,4.251
			l-4.637,0.518c-0.551,0.061-1.015,0.438-1.187,0.967c-0.172,0.527-0.019,1.105,0.392,1.479l3.447,3.146l-0.941,4.57
			c-0.112,0.543,0.104,1.103,0.553,1.428c0.449,0.326,1.047,0.359,1.529,0.086l4.055-2.308l4.056,2.308
			c0.482,0.273,1.081,0.24,1.529-0.086c0.449-0.325,0.666-0.885,0.553-1.428l-0.941-4.57l3.447-3.146
			c0.41-0.374,0.563-0.953,0.393-1.479C31.255,33.91,30.79,33.53,30.239,33.471z"/>
	</g>
</g>
<g>
</g>
<g>
</g>
<g>
</g>
<g>
</g>
<g>
</g>
<g>
</g>
<g>
</g>
<g>
</g>
<g>
</g>
<g>
</g>
<g>
</g>
<g>
</g>
<g>
</g>
<g>
</g>
<g>
</g>
</svg>
